<?xml version="1.0" encoding="UTF-8" standalone="no"?>
<!-- Created with Inkscape (http://www.inkscape.org/) -->

<svg
   xmlns:dc="http://purl.org/dc/elements/1.1/"
   xmlns:cc="http://creativecommons.org/ns#"
   xmlns:rdf="http://www.w3.org/1999/02/22-rdf-syntax-ns#"
   xmlns:svg="http://www.w3.org/2000/svg"
   xmlns="http://www.w3.org/2000/svg"
   xmlns:xlink="http://www.w3.org/1999/xlink"
   xmlns:sodipodi="http://sodipodi.sourceforge.net/DTD/sodipodi-0.dtd"
   xmlns:inkscape="http://www.inkscape.org/namespaces/inkscape"
   width="48.000000px"
   height="48.000000px"
   id="svg2"
   sodipodi:version="0.32"
   inkscape:version="0.47 r22583"
   sodipodi:docname="High-contrast-camera-photo.svg"
   version="1.1">
  <defs
     id="defs4">
    <linearGradient
       inkscape:collect="always"
       id="linearGradient3827">
      <stop
         style="stop-color:#ffffff;stop-opacity:1"
         offset="0"
         id="stop3829" />
      <stop
         style="stop-color:#333333;stop-opacity:1"
         offset="1"
         id="stop3831" />
    </linearGradient>
    <linearGradient
       id="linearGradient3796"
       inkscape:collect="always">
      <stop
         id="stop3798"
         offset="0"
         style="stop-color:#ffffff;stop-opacity:1" />
      <stop
         id="stop3800"
         offset="1"
         style="stop-color:#000000;stop-opacity:0" />
    </linearGradient>
    <linearGradient
       inkscape:collect="always"
       id="linearGradient3782">
      <stop
         style="stop-color:#ffffff;stop-opacity:1"
         offset="0"
         id="stop3784" />
      <stop
         style="stop-color:#000000;stop-opacity:1"
         offset="1"
         id="stop3786" />
    </linearGradient>
    <linearGradient
       inkscape:collect="always"
       id="linearGradient3767">
      <stop
         style="stop-color:#333333;stop-opacity:1"
         offset="0"
         id="stop3769" />
      <stop
         style="stop-color:#1a1a1a;stop-opacity:1"
         offset="1"
         id="stop3771" />
    </linearGradient>
    <linearGradient
       inkscape:collect="always"
       id="linearGradient3684">
      <stop
         style="stop-color:#000000;stop-opacity:1"
         offset="0"
         id="stop3686" />
      <stop
         id="stop3694"
         offset="0.48359612"
         style="stop-color:#747474;stop-opacity:1;" />
      <stop
         style="stop-color:#000000;stop-opacity:1"
         offset="1"
         id="stop3688" />
    </linearGradient>
    <inkscape:perspective
       sodipodi:type="inkscape:persp3d"
       inkscape:vp_x="0 : 24 : 1"
       inkscape:vp_y="0 : 1000 : 0"
       inkscape:vp_z="48 : 24 : 1"
       inkscape:persp3d-origin="24 : 16 : 1"
       id="perspective2869" />
    <linearGradient
       inkscape:collect="always"
       xlink:href="#linearGradient3684"
       id="linearGradient3690"
       x1="32.277485"
       y1="7.4973822"
       x2="51.874344"
       y2="27"
       gradientUnits="userSpaceOnUse" />
    <linearGradient
       inkscape:collect="always"
       xlink:href="#linearGradient3684"
       id="linearGradient3702"
       gradientUnits="userSpaceOnUse"
       x1="32.277485"
       y1="7.4973822"
       x2="51.874344"
       y2="27" />
    <linearGradient
       inkscape:collect="always"
       xlink:href="#linearGradient3684"
       id="linearGradient3719"
       gradientUnits="userSpaceOnUse"
       x1="32.277485"
       y1="7.4973822"
       x2="51.874344"
       y2="27"
       gradientTransform="translate(-28.28125,-0.50000005)" />
    <inkscape:perspective
       id="perspective3731"
       inkscape:persp3d-origin="0.5 : 0.33333333 : 1"
       inkscape:vp_z="1 : 0.5 : 1"
       inkscape:vp_y="0 : 1000 : 0"
       inkscape:vp_x="0 : 0.5 : 1"
       sodipodi:type="inkscape:persp3d" />
    <inkscape:perspective
       id="perspective3753"
       inkscape:persp3d-origin="0.5 : 0.33333333 : 1"
       inkscape:vp_z="1 : 0.5 : 1"
       inkscape:vp_y="0 : 1000 : 0"
       inkscape:vp_x="0 : 0.5 : 1"
       sodipodi:type="inkscape:persp3d" />
    <linearGradient
       inkscape:collect="always"
       xlink:href="#linearGradient3767"
       id="linearGradient3773"
       x1="10.52356"
       y1="10.531413"
       x2="41.078537"
       y2="39.507854"
       gradientUnits="userSpaceOnUse" />
    <linearGradient
       inkscape:collect="always"
       xlink:href="#linearGradient3782"
       id="linearGradient3788"
       x1="6.0879974"
       y1="8"
       x2="8.9214659"
       y2="11.03665"
       gradientUnits="userSpaceOnUse" />
    <linearGradient
       inkscape:collect="always"
       xlink:href="#linearGradient3796"
       id="linearGradient3794"
       gradientUnits="userSpaceOnUse"
       x1="12.251308"
       y1="14.073299"
       x2="8.9214659"
       y2="11.03665" />
    <inkscape:perspective
       id="perspective2838"
       inkscape:persp3d-origin="0.5 : 0.33333333 : 1"
       inkscape:vp_z="1 : 0.5 : 1"
       inkscape:vp_y="0 : 1000 : 0"
       inkscape:vp_x="0 : 0.5 : 1"
       sodipodi:type="inkscape:persp3d" />
    <linearGradient
       gradientTransform="matrix(1.269095,-0.13167,0.08088146,0.779571,0,0)"
       gradientUnits="userSpaceOnUse"
       id="linearGradient10462"
       inkscape:collect="always"
       x1="-19.039936"
       x2="15.223759"
       xlink:href="#linearGradient3579"
       y1="52.71389"
       y2="111.3392" />
    <linearGradient
       id="linearGradient3579"
       inkscape:collect="always">
      <stop
         id="stop3581"
         offset="0"
         style="stop-color:#ffffff;stop-opacity:1;" />
      <stop
         id="stop3583"
         offset="1"
         style="stop-color:#ffffff;stop-opacity:0;" />
    </linearGradient>
    <linearGradient
       y2="98.986786"
       x2="27.254715"
       y1="81.948097"
       x1="10.298367"
       gradientTransform="matrix(1.230097,-0.12762391,0.07839605,0.75561556,-12.286115,-50.177763)"
       gradientUnits="userSpaceOnUse"
       id="linearGradient2847"
       xlink:href="#linearGradient3827"
       inkscape:collect="always" />
  </defs>
  <sodipodi:namedview
     id="base"
     pagecolor="#ffffff"
     bordercolor="#666666"
     borderopacity="1.0"
     inkscape:pageopacity="0.0"
     inkscape:pageshadow="2"
     inkscape:zoom="15.916667"
     inkscape:cx="27.47322"
     inkscape:cy="28.425479"
     inkscape:document-units="px"
     inkscape:current-layer="svg2"
     showgrid="true"
     inkscape:grid-bbox="true"
     inkscape:grid-points="true"
     gridtolerance="1.0000000px"
     guidetolerance="1.0000000px"
     inkscape:guide-points="true"
     inkscape:window-width="1280"
     inkscape:window-height="971"
     inkscape:window-x="-4"
     inkscape:window-y="-4"
     showguides="true"
     inkscape:guide-bbox="true"
     inkscape:window-maximized="1">
    <inkscape:grid
       id="GridFromPre046Settings"
       type="xygrid"
       originx="0px"
       originy="0.0000000px"
       spacingx="1.0000000px"
       spacingy="1.0000000px"
       color="#0000ff"
       empcolor="#0000ff"
       opacity="0.2"
       empopacity="0.4"
       empspacing="5" />
  </sodipodi:namedview>
  <metadata
     id="metadata7">
    <rdf:RDF>
      <cc:Work
         rdf:about="">
        <dc:format>image/svg+xml</dc:format>
        <dc:type
           rdf:resource="http://purl.org/dc/dcmitype/StillImage" />
        <cc:license
           rdf:resource="http://creativecommons.org/licenses/GPL/2.0/" />
        <dc:title>Camera</dc:title>
        <dc:description>A photo camera.</dc:description>
        <dc:contributor>
          <cc:Agent>
            <dc:title>Design based on existing icon in HighContast GNOME icon theme.</dc:title>
          </cc:Agent>
        </dc:contributor>
        <dc:creator>
          <cc:Agent>
            <dc:title>Luca Ferretti &lt;elle.uca@libero.it&gt;</dc:title>
          </cc:Agent>
        </dc:creator>
      </cc:Work>
      <cc:License
         rdf:about="http://creativecommons.org/licenses/GPL/2.0/">
        <cc:permits
           rdf:resource="http://web.resource.org/cc/Reproduction" />
        <cc:permits
           rdf:resource="http://web.resource.org/cc/Distribution" />
        <cc:requires
           rdf:resource="http://web.resource.org/cc/Notice" />
        <cc:permits
           rdf:resource="http://web.resource.org/cc/DerivativeWorks" />
        <cc:requires
           rdf:resource="http://web.resource.org/cc/ShareAlike" />
        <cc:requires
           rdf:resource="http://web.resource.org/cc/SourceCode" />
      </cc:License>
    </rdf:RDF>
  </metadata>
  <rect
     style="fill:none;fill-opacity:0.75000000;fill-rule:evenodd;stroke:none;stroke-width:1.0000000px;stroke-linecap:butt;stroke-linejoin:miter;stroke-opacity:1.0000000"
     id="rect9880"
     width="48.000000"
     height="48.000000"
     x="0.0000000"
     y="0.0000000"
     ry="0.0000000" />
  <g
     inkscape:label="Livello 1"
     inkscape:groupmode="layer"
     id="layer1" />
  <path
     sodipodi:nodetypes="ccccccccccccc"
     id="path9152"
     d="M 5.9528794,12.057592 L 15.005235,12.057592 L 17.005235,7.0575914 L 31.005235,7.0575914 L 33.005235,12.057592 L 42.057591,12.057592 C 43.136586,12.057592 44.005235,12.926241 44.005235,14.005236 L 44.109947,38.057592 C 44.109947,39.136587 43.241298,40.005236 42.162303,40.005236 L 6.0575914,40.005236 C 4.9785966,40.005236 4.1099474,39.136587 4.1099474,38.057592 L 4.0052354,14.005236 C 4.0052354,12.926241 4.8738846,12.057592 5.9528794,12.057592 z "
     style="fill:#ffffff;fill-opacity:1.0000000;fill-rule:evenodd;stroke:#ffffff;stroke-width:8.0000000;stroke-linecap:butt;stroke-linejoin:miter;stroke-miterlimit:4.0000000;stroke-dasharray:none;stroke-opacity:1.0000000" />
  <path
     style="fill:#000000;fill-opacity:1.0000000;fill-rule:evenodd;stroke:none;stroke-width:1.0000000px;stroke-linecap:butt;stroke-linejoin:miter;stroke-opacity:1.0000000"
     d="M 5.9528794,12.057592 L 15.005235,12.057592 L 17.005235,7.0575914 L 31.005235,7.0575914 L 33.005235,12.057592 L 42.057591,12.057592 C 43.136586,12.057592 44.005235,12.926241 44.005235,14.005236 L 44.109947,38.057592 C 44.109947,39.136587 43.241298,40.005236 42.162303,40.005236 L 6.0575914,40.005236 C 4.9785966,40.005236 4.1099474,39.136587 4.1099474,38.057592 L 4.0052354,14.005236 C 4.0052354,12.926241 4.8738846,12.057592 5.9528794,12.057592 z "
     id="rect8423"
     sodipodi:nodetypes="ccccccccccccc" />
  <path
     sodipodi:nodetypes="cszzscsssc"
     id="path3717"
     d="m 61.439789,14.308901 c -5.478125,0 -9.943181,4.504121 -9.943181,10 0,5.495879 4.465055,10.000001 9.943181,10 5.478126,-10e-7 9.943181,-4.504121 9.943181,-10 0,-5.495879 -4.465056,-10 -9.943181,-10 z m 0,4.909091 c 2.797441,0 5.045455,2.257226 5.045455,5.090909 -10e-7,2.833683 -2.248014,5.090909 -5.045455,5.090909 -2.79744,1e-6 -5.045455,-2.257226 -5.045455,-5.090909 0,-2.833683 2.248014,-5.090909 5.045455,-5.090909 z"
     style="fill:#ffffff;fill-opacity:1;fill-rule:evenodd;stroke:none" />
  <path
     style="fill:url(#linearGradient3773);fill-opacity:1;fill-rule:evenodd;stroke:none"
     d="M 17.375,7.4375 15.4375,12.625 6.375,12.5625 c -1.0485691,0 -1.8125,0.57481 -1.8125,1.625 L 4.65625,37.625 c 0,1.05019 0.8576809,1.875 1.90625,1.875 l 35.0625,0 c 1.048569,0 1.90625,-0.82481 1.90625,-1.875 L 43.4375,14.1875 c 0,-1.05019 -0.857681,-1.625 -1.90625,-1.625 L 32.561518,12.500982 30.46875,7.5 17.375,7.4375 z"
     id="rect8423-1"
     sodipodi:nodetypes="ccccccccccccc" />
  <path
     style="fill:#ffffff;fill-opacity:1;fill-rule:evenodd;stroke:none"
     d="m 24.413612,15.507854 c -5.478125,0 -9.943181,4.504121 -9.943181,10 0,5.495879 4.465055,10.000001 9.943181,10 5.478126,-1e-6 9.943181,-4.504121 9.943181,-10 0,-5.495879 -4.465056,-10 -9.943181,-10 z m 0,4.909091 c 2.797441,0 5.045455,2.257226 5.045455,5.090909 -1e-6,2.833683 -2.248014,5.090909 -5.045455,5.090909 -2.79744,10e-7 -5.045455,-2.257226 -5.045455,-5.090909 0,-2.833683 2.248014,-5.090909 5.045455,-5.090909 z"
     id="path12070"
     sodipodi:nodetypes="cszzscsssc" />
  <path
     sodipodi:type="arc"
     style="opacity:0.88732390000000005;fill:#000000;fill-opacity:1;fill-rule:nonzero;stroke-width:0;stroke-linejoin:round;stroke-miterlimit:4;stroke-dasharray:none"
     id="path3776"
     sodipodi:cx="4.4083772"
     sodipodi:cy="8.8586397"
     sodipodi:rx="3.5916231"
     sodipodi:ry="3.5183246"
     d="m 8.0000002,8.8586397 a 3.5916231,3.5183246 0 1 1 -7.1832461,0 3.5916231,3.5183246 0 1 1 7.1832461,0 z"
     transform="matrix(1.4285714,0,0,1.4375,18.142109,12.8678)" />
  <path
     sodipodi:type="arc"
     style="opacity:0.8873239;fill:#333333;fill-opacity:1;fill-rule:nonzero;stroke-width:0;stroke-linejoin:round;stroke-miterlimit:4;stroke-dasharray:none"
     id="path3778"
     sodipodi:cx="8.9214659"
     sodipodi:cy="11.03665"
     sodipodi:rx="3.3298428"
     sodipodi:ry="3.0366495"
     d="m 12.251309,11.03665 a 3.3298428,3.0366495 0 1 1 -6.6596859,0 3.3298428,3.0366495 0 1 1 6.6596859,0 z"
     transform="matrix(1.3922957,0,0,1.4818964,12.068211,9.144829)" />
  <path
     transform="matrix(1.3828616,0,0,1.564655,12.058135,8.2942776)"
     d="m 12.251309,11.03665 a 3.3298428,3.0366495 0 1 1 -6.6596859,0 3.3298428,3.0366495 0 1 1 6.6596859,0 z"
     sodipodi:ry="3.0366495"
     sodipodi:rx="3.3298428"
     sodipodi:cy="11.03665"
     sodipodi:cx="8.9214659"
     id="path3780"
     style="opacity:0.8873239;fill:url(#linearGradient3788);fill-opacity:1;fill-rule:nonzero;stroke-width:0;stroke-linejoin:round;stroke-miterlimit:4;stroke-dasharray:none"
     sodipodi:type="arc" />
  <path
     sodipodi:type="star"
     style="opacity:0.9;fill:none;stroke-width:0;stroke-linejoin:round;stroke-miterlimit:4;stroke-dasharray:none"
     id="path3802"
     sodipodi:sides="5"
     sodipodi:cx="1.7591623"
     sodipodi:cy="6.7853412"
     sodipodi:r1="8.0470368"
     sodipodi:r2="4.0235184"
     sodipodi:arg1="0.82405293"
     sodipodi:arg2="1.4523715"
     inkscape:flatsided="false"
     inkscape:rounded="0"
     inkscape:randomized="0"
     d="M 7.225131,12.691101 2.2345338,10.780679 -2.1684713,13.808766 -1.8937318,8.4720737 -6.1342175,5.2202974 -0.97382193,3.8324615 0.80841893,-1.2053341 3.7229793,3.2736288 9.0649504,3.4118761 5.7058522,7.5678633 7.225131,12.691101 z" />
  <path
     sodipodi:type="star"
     style="opacity:0.9;fill:none;stroke-width:0;stroke-linejoin:round;stroke-miterlimit:4;stroke-dasharray:none"
     id="path3804"
     sodipodi:sides="5"
     sodipodi:cx="0.87958113"
     sodipodi:cy="4.5235611"
     sodipodi:r1="5.5533722"
     sodipodi:r2="2.7766861"
     sodipodi:arg1="0.79339799"
     sodipodi:arg2="1.4217165"
     inkscape:flatsided="false"
     inkscape:rounded="0"
     inkscape:randomized="0"
     d="M 4.7748692,8.4816762 1.2919974,7.2694487 -1.6810999,9.4513249 -1.6044696,5.7643181 -4.5982948,3.6109714 -1.0680629,2.5445034 0.0547487,-0.96821433 2.1599216,2.059679 5.8476826,2.0420468 3.6185191,4.9798558 4.7748692,8.4816762 z" />
  <path
     sodipodi:type="star"
     style="opacity:0.9;fill:none;stroke-width:0;stroke-linejoin:round;stroke-miterlimit:4;stroke-dasharray:none"
     id="path3806"
     sodipodi:sides="8"
     sodipodi:cx="1.6335078"
     sodipodi:cy="5"
     sodipodi:r1="1.869228"
     sodipodi:r2="0.934614"
     sodipodi:arg1="0.96259473"
     sodipodi:arg2="1.3552938"
     inkscape:flatsided="true"
     inkscape:rounded="0"
     inkscape:randomized="0"
     d="M 2.7015707,6.5340323 1.3040177,6.8399591 0.09947553,6.0680628 -0.20645127,4.6705098 0.56544503,3.4659677 1.962998,3.1600409 3.1675402,3.9319372 3.473467,5.3294902 2.7015707,6.5340323 z" />
  <path
     d="M 15.311398,13 C 12.422075,12.807675 10.000969,12.790306 8.1990158,12.776877 6.8403425,12.766751 5.9189793,12.70648 5.2976795,13.160051 4.7477498,13.56152 4.8457803,14.634163 4.779347,16.49343 4.665338,19.684196 4.6605695,24.85389 5,31 6.4484835,32.565194 7.7930958,32.587791 9.1240461,31.182318 10.093445,30.158639 13.57483,24.966296 14.151477,23 c 1.25339,-4.273905 4.631068,-8 10.330079,-8 2.653231,0 7.151568,1.772708 9.287694,2.870965 C 33.946182,16.916362 32.192231,9.6114009 30,8.1794474 29.386277,7.7785669 22.111089,8 18.092654,8.2193219 16.758464,8.2921406 16.761594,12.57215 15.311398,13 z"
     id="path2057"
     sodipodi:nodetypes="cssscssscssc"
     style="fill:url(#linearGradient2847);fill-opacity:1;stroke:none" />
</svg>
