<?xml version="1.0" encoding="UTF-8"?>
<svg xmlns="http://www.w3.org/2000/svg" xmlns:xlink="http://www.w3.org/1999/xlink" width="128pt" height="128pt" viewBox="0 0 128 128" version="1.1">
<defs>
<linearGradient id="linear0" gradientUnits="userSpaceOnUse" x1="-404.175781" y1="769.785156" x2="-290.367188" y2="769.785156" gradientTransform="matrix(1,0,0,1,410.7727,-706.2849)">
<stop offset="0" style="stop-color:rgb(79.607843%,0%,0%);stop-opacity:1;"/>
<stop offset="1" style="stop-color:rgb(48.627451%,0%,0%);stop-opacity:1;"/>
</linearGradient>
<linearGradient id="linear1" gradientUnits="userSpaceOnUse" x1="-347.273438" y1="717.921875" x2="-347.273438" y2="821.648438" gradientTransform="matrix(1,0,0,1,410.7727,-706.2849)">
<stop offset="0.2802" style="stop-color:rgb(100%,100%,81.176471%);stop-opacity:1;"/>
<stop offset="1" style="stop-color:rgb(100%,70.196078%,0%);stop-opacity:1;"/>
</linearGradient>
<linearGradient id="linear2" gradientUnits="userSpaceOnUse" x1="-144.933594" y1="180.035156" x2="-144.933594" y2="87.160156" gradientTransform="matrix(1,0,0,-1,208.4328,197.4036)">
<stop offset="0.1703" style="stop-color:rgb(100%,100%,100%);stop-opacity:1;"/>
<stop offset="0.61" style="stop-color:rgb(100%,76.470588%,4.313725%);stop-opacity:1;"/>
<stop offset="1" style="stop-color:rgb(100%,100%,100%);stop-opacity:1;"/>
</linearGradient>
<linearGradient id="linear3" gradientUnits="userSpaceOnUse" x1="-144.933594" y1="183.269531" x2="-144.933594" y2="84.542969" gradientTransform="matrix(1,0,0,-1,208.4328,197.4036)">
<stop offset="0.1703" style="stop-color:rgb(100%,100%,100%);stop-opacity:1;"/>
<stop offset="0.61" style="stop-color:rgb(100%,65.882353%,0%);stop-opacity:1;"/>
<stop offset="1" style="stop-color:rgb(100%,100%,100%);stop-opacity:1;"/>
</linearGradient>
</defs>
<g id="surface1">
<path style=" stroke:none;fill-rule:nonzero;fill:rgb(0%,0%,0%);fill-opacity:0.501961;" d="M 96.578125 120.363281 C 95.195312 120.363281 93.878906 119.9375 92.757812 119.121094 L 64.5 98.59375 L 36.242188 119.121094 C 35.128906 119.933594 33.804688 120.363281 32.421875 120.363281 C 31.042969 120.363281 29.722656 119.933594 28.601562 119.121094 C 26.316406 117.464844 25.367188 114.542969 26.238281 111.851562 L 37.03125 78.636719 L 8.773438 58.105469 C 6.488281 56.441406 5.539062 53.523438 6.414062 50.835938 C 7.289062 48.148438 9.773438 46.347656 12.597656 46.347656 L 47.523438 46.347656 L 58.316406 13.128906 C 59.191406 10.441406 61.675781 8.636719 64.5 8.636719 C 67.324219 8.636719 69.808594 10.441406 70.683594 13.128906 L 81.480469 46.34375 L 116.40625 46.34375 C 119.230469 46.34375 121.714844 48.148438 122.589844 50.835938 C 123.460938 53.523438 122.511719 56.445312 120.226562 58.105469 L 91.96875 78.636719 L 102.757812 111.855469 C 103.632812 114.539062 102.683594 117.460938 100.394531 119.121094 C 99.28125 119.933594 97.960938 120.363281 96.578125 120.363281 Z M 96.578125 120.363281 "/>
<path style=" stroke:none;fill-rule:nonzero;fill:url(#linear0);" d="M 95.574219 117.863281 C 94.546875 117.863281 93.515625 117.546875 92.636719 116.910156 L 63.5 95.738281 L 34.359375 116.910156 C 33.484375 117.546875 32.449219 117.867188 31.421875 117.867188 C 30.390625 117.867188 29.359375 117.546875 28.484375 116.910156 C 26.730469 115.636719 25.996094 113.378906 26.664062 111.320312 L 37.796875 77.0625 L 8.65625 55.890625 C 6.90625 54.617188 6.171875 52.359375 6.839844 50.300781 C 7.511719 48.238281 9.429688 46.84375 11.597656 46.84375 L 47.613281 46.84375 L 58.742188 12.589844 C 59.414062 10.527344 61.335938 9.136719 63.5 9.136719 C 65.667969 9.136719 67.585938 10.53125 68.257812 12.589844 L 79.386719 46.84375 L 115.402344 46.84375 C 117.570312 46.84375 119.488281 48.238281 120.160156 50.300781 C 120.828125 52.359375 120.097656 54.617188 118.34375 55.890625 L 89.203125 77.0625 L 100.335938 111.320312 C 101.003906 113.378906 100.269531 115.636719 98.515625 116.910156 C 97.640625 117.546875 96.609375 117.863281 95.574219 117.863281 Z M 95.574219 117.863281 "/>
<path style=" stroke:none;fill-rule:nonzero;fill:url(#linear1);" d="M 95.574219 115.363281 C 95.058594 115.363281 94.546875 115.203125 94.109375 114.886719 L 63.496094 92.644531 L 32.890625 114.882812 C 32.453125 115.199219 31.9375 115.359375 31.421875 115.359375 C 30.902344 115.359375 30.390625 115.199219 29.953125 114.882812 C 29.074219 114.246094 28.707031 113.117188 29.042969 112.089844 L 40.734375 76.105469 L 10.128906 53.863281 C 9.25 53.230469 8.882812 52.101562 9.21875 51.070312 C 9.554688 50.042969 10.511719 49.34375 11.597656 49.34375 L 49.429688 49.34375 L 61.121094 13.363281 C 61.457031 12.335938 62.414062 11.636719 63.5 11.636719 C 64.582031 11.636719 65.542969 12.335938 65.878906 13.363281 L 77.570312 49.34375 L 115.402344 49.34375 C 116.488281 49.34375 117.445312 50.042969 117.78125 51.070312 C 118.117188 52.101562 117.753906 53.230469 116.871094 53.867188 L 86.261719 76.105469 L 97.953125 112.089844 C 98.289062 113.117188 97.925781 114.246094 97.046875 114.882812 C 96.605469 115.199219 96.09375 115.363281 95.574219 115.363281 Z M 95.574219 115.363281 "/>
<path style=" stroke:none;fill-rule:nonzero;fill:url(#linear2);" d="M 33.320312 110.242188 L 44.621094 75.460938 L 44.847656 74.769531 L 44.261719 74.34375 L 14.675781 52.84375 L 51.972656 52.84375 L 52.195312 52.152344 L 63.5 17.367188 L 74.800781 52.152344 L 75.023438 52.84375 L 112.324219 52.84375 L 82.734375 74.34375 L 82.148438 74.769531 L 82.371094 75.460938 L 93.679688 110.242188 L 64.085938 88.746094 L 63.5 88.320312 L 62.910156 88.746094 Z M 33.320312 110.242188 "/>
<path style=" stroke:none;fill-rule:nonzero;fill:url(#linear3);" d="M 63.5 14.136719 L 75.753906 51.84375 L 115.402344 51.84375 L 83.324219 75.152344 L 95.578125 112.863281 L 63.5 89.554688 L 31.421875 112.863281 L 43.675781 75.152344 L 11.59375 51.84375 L 51.246094 51.84375 L 63.5 14.136719 M 63.5 20.605469 L 53.148438 52.464844 L 52.699219 53.84375 L 17.75 53.84375 L 44.851562 73.535156 L 46.023438 74.386719 L 45.574219 75.769531 L 35.222656 107.625 L 62.320312 87.9375 L 63.496094 87.082031 L 64.675781 87.9375 L 91.773438 107.625 L 81.421875 75.769531 L 80.972656 74.386719 L 82.152344 73.53125 L 109.25 53.84375 L 74.300781 53.84375 L 73.851562 52.464844 Z M 63.5 20.605469 "/>
</g>
</svg>
