<?xml version="1.0" encoding="utf-8"?>
<!-- Generator: Adobe Illustrator 20.1.0, SVG Export Plug-In . SVG Version: 6.00 Build 0)  -->
<svg version="1.1" id="Ebene_1" xmlns="http://www.w3.org/2000/svg" xmlns:xlink="http://www.w3.org/1999/xlink" x="0px" y="0px"
	 viewBox="0 0 155.9 56.7" style="enable-background:new 0 0 155.9 56.7;" xml:space="preserve">
<style type="text/css">
	.st0{fill:#BF0C2C;}
	.st1{fill:#FFFFFF;}
</style>
<rect width="155.9" height="56.7"/>
<polygon class="st0" points="8.5,43.9 8.5,48.2 147.4,48.2 147.4,43.9 8.5,43.9 "/>
<path class="st1" d="M57.4,28.5c0,4.8-2.5,7.5-7,7.5c-4.5,0-6.9-2.6-6.9-7.5V10.2h-4.1v18.5c0,6.9,4.1,11.1,11.1,11.1
	c6.7,0,11.2-4.5,11.2-11.1V10.2h-4.1V28.5L57.4,28.5z"/>
<path class="st1" d="M16.9,9.9c-2.5,0-4.8,0.1-7.4,0.5L9,10.4v28.5L9.5,39c2.2,0.2,4.8,0.5,7.6,0.5c11.3,0,16.3-7.6,16.3-15.1
	C33.5,17.4,28.3,9.9,16.9,9.9L16.9,9.9z M29.1,24.4c0,7.1-4.3,11.3-11.5,11.3c-2,0-3.3-0.1-4.4-0.2V13.8c1-0.1,2.5-0.2,4-0.2
	C24.5,13.6,29.1,17.7,29.1,24.4L29.1,24.4z"/>
<path class="st1" d="M76.6,9.9c-2.5,0-4.8,0.1-7.4,0.5l-0.5,0.1v28.5l0.5,0.1c2.2,0.2,4.8,0.5,7.6,0.5c11.3,0,16.3-7.6,16.3-15.1
	C93.2,17.4,88,9.9,76.6,9.9L76.6,9.9z M88.7,24.4c0,7.1-4.3,11.3-11.5,11.3c-2,0-3.3-0.1-4.4-0.2V13.8c1-0.1,2.5-0.2,4-0.2
	C84.2,13.6,88.7,17.7,88.7,24.4L88.7,24.4z"/>
<polygon class="st1" points="99.5,39.3 117.1,39.3 117.1,35.5 103.7,35.5 103.7,26.5 115.7,26.5 115.7,22.6 103.7,22.6 103.7,14 
	117.1,14 117.1,10.2 99.5,10.2 99.5,39.3 "/>
<polygon class="st1" points="142.7,30 124.8,9.8 124.1,9.8 124.1,39.3 128.3,39.3 128.3,19.5 146.2,39.7 146.9,39.7 146.9,10.2 
	142.7,10.2 "/>
</svg>
